<?xml version="1.0" standalone="no"?>
<!DOCTYPE svg PUBLIC "-//W3C//DTD SVG 20010904//EN"
 "http://www.w3.org/TR/2001/REC-SVG-20010904/DTD/svg10.dtd">
<svg version="1.0" xmlns="http://www.w3.org/2000/svg"
 width="862.000000pt" height="536.000000pt" viewBox="0 0 862.000000 536.000000"
 preserveAspectRatio="xMidYMid meet">

<g transform="translate(0.000000,536.000000) scale(0.100000,-0.100000)"
fill="#000000" stroke="none">
<path d="M1684 4621 c3 -4 -23 -7 -57 -7 -223 1 -612 -140 -887 -322 -117 -77
-249 -185 -245 -199 2 -6 -3 -17 -11 -23 -11 -10 -14 -10 -14 1 0 8 -25 -12
-54 -43 -106 -110 -118 -157 -15 -55 178 176 347 301 559 411 133 69 206 97
378 145 93 27 282 64 364 73 l28 3 -25 12 c-14 6 -23 8 -21 4z m-307 -67 c-3
-3 -12 -4 -19 -1 -8 3 -5 6 6 6 11 1 17 -2 13 -5z m-40 -10 c-3 -3 -12 -4 -19
-1 -8 3 -5 6 6 6 11 1 17 -2 13 -5z"/>
<path d="M1761 3753 c-1 -17 16 -25 25 -12 4 7 3 9 -4 5 -5 -3 -13 0 -15 6 -4
9 -6 10 -6 1z"/>
<path d="M2615 3660 c3 -5 8 -10 11 -10 2 0 4 5 4 10 0 6 -5 10 -11 10 -5 0
-7 -4 -4 -10z"/>
<path d="M2750 3489 c0 -5 5 -7 10 -4 6 3 10 8 10 11 0 2 -4 4 -10 4 -5 0 -10
-5 -10 -11z"/>
<path d="M5079 3466 c-10 -10 6 -79 19 -84 6 -2 12 2 11 10 -1 23 -24 79 -30
74z"/>
<path d="M4430 3421 c0 -6 5 -13 10 -16 6 -3 10 1 10 9 0 9 -4 16 -10 16 -5 0
-10 -4 -10 -9z"/>
<path d="M7676 3022 c-7 -12 22 -38 31 -28 4 3 0 14 -9 22 -9 10 -18 12 -22 6z"/>
<path d="M7663 2963 c9 -2 25 -2 35 0 9 3 1 5 -18 5 -19 0 -27 -2 -17 -5z"/>
<path d="M3557 2604 c-8 -8 1 -24 14 -24 5 0 9 7 9 15 0 15 -12 20 -23 9z"/>
<path d="M6150 1560 c0 -5 5 -10 11 -10 5 0 7 5 4 10 -3 6 -8 10 -11 10 -2 0
-4 -4 -4 -10z"/>
<path d="M4710 1531 c0 -11 4 -21 9 -21 18 0 21 18 6 30 -13 10 -15 9 -15 -9z"/>
<path d="M4320 1379 c-25 -23 -35 -37 -23 -30 36 19 38 13 7 -21 -36 -39 -12
-26 39 21 33 30 50 71 29 71 -4 0 -27 -19 -52 -41z"/>
<path d="M7929 915 c-19 -19 -166 -79 -243 -99 -33 -9 -64 -20 -70 -26 -5 -5
-24 -10 -40 -10 -17 0 -38 -5 -46 -11 -38 -25 186 32 282 72 60 26 123 63 133
79 9 15 2 12 -16 -5z"/>
</g>
</svg>
